<svg viewBox="0 0 90 24" xmlns="http://www.w3.org/2000/svg"><defs/><defs><linearGradient x1="0%" y1="50%" x2="25.788%" y2="50%" id="a"><stop stop-opacity=".5" offset="0%"/><stop stop-color="#4A4A4A" stop-opacity="0" offset="100%"/></linearGradient><linearGradient x1="95.664%" y1="76.76%" x2="81.499%" y2="76.76%" id="b"><stop stop-opacity=".5" offset="0%"/><stop stop-color="#4A4A4A" stop-opacity="0" offset="100%"/></linearGradient><linearGradient x1="62.736%" y1="0%" x2="62.736%" y2="66.138%" id="c"><stop stop-opacity=".5" offset="0%"/><stop stop-color="#4A4A4A" stop-opacity="0" offset="100%"/></linearGradient><linearGradient x1="67.112%" y1="0%" x2="67.112%" y2="50%" id="d"><stop stop-opacity=".5" offset="0%"/><stop stop-color="#4A4A4A" stop-opacity="0" offset="100%"/></linearGradient><linearGradient x1="16.979%" y1="0%" x2="16.979%" y2="28.95%" id="e"><stop stop-opacity=".5" offset="0%"/><stop stop-color="#4A4A4A" stop-opacity="0" offset="100%"/></linearGradient><linearGradient x1="53.23316%" y1="77.483%" x2="47.21558%" y2="71.728%" id="f"><stop stop-opacity=".5" offset="0%"/><stop stop-color="#4A4A4A" stop-opacity="0" offset="100%"/></linearGradient><linearGradient x1="54.50016%" y1="76.976%" x2="46.16304%" y2="70.434%" id="g"><stop stop-opacity=".5" offset="0%"/><stop stop-color="#4A4A4A" stop-opacity="0" offset="100%"/></linearGradient><linearGradient x1="53.5344444%" y1="27.363%" x2="41.4081111%" y2="36.378%" id="h"><stop stop-opacity=".5" offset="0%"/><stop stop-color="#4A4A4A" stop-opacity="0" offset="100%"/></linearGradient><linearGradient x1="0%" y1="50%" x2="50%" y2="50%" id="i"><stop stop-opacity=".5" offset="0%"/><stop stop-color="#4A4A4A" stop-opacity="0" offset="100%"/></linearGradient></defs><g fill="none" fill-rule="evenodd"><path fill="#2D232E" d="M89.25 4.5v11.25h-3V4.5z"/><path d="M77.9746374 1.39936902v7.33443799h.4861892c.2043413 0 .3611182-.02775912.470335-.08327822.109217-.0555191.2131477-.15614601.3117953-.3018837l2.0715884-3.03965632c.1197861-.18043712.2624706-.31229304.4280576-.39557171.165587-.08327867.37521-.12491739.6288755-.12491739h3.0016897l-2.8325802 3.8412095c-.1338794.18043719-.2800865.34005224-.4386276.47885003-.1585403.13879772-.3294099.26371391-.5126127.37475212.3170814.23595621.5918813.54824658.8244083.93688038L85.5 15.5834435h-2.9594121c-.2466196 0-.4597652-.0399038-.6394447-.1197125s-.3258874-.2203394-.4386276-.4215962l-2.0715881-3.8203899c-.0986476-.1734972-.2008167-.2862688-.3065105-.3383179-.1056939-.0520492-.2642322-.0780734-.4756199-.0780734h-.6341597v4.7780899h-3.276492V0l3.276492 1.39936902zm-4.8489733 5.75215115c-.084555.1318579-.1743934.225545-.2695179.28106411-.0951244.05551912-.2166705.08327825-.3646418.08327825-.1550176 0-.3100329-.03296397-.4650504-.09889292-.1550177-.06592895-.3223637-.13706175-.5020432-.21340053-.1796795-.07633878-.3822563-.14747158-.6077364-.21340053-.2254801-.06592895-.4826646-.09889293-.771561-.09889293-.4157291 0-.7345673.07807258-.9565243.23422009-.221957.15614751-.3329339.3730158-.3329339.65061137 0 .20125683.072223.36781161.2166712.49966951.1444483.1318579.3364559.24809936.5760285.34872768.2395726.1006284.5108494.19605048.8138383.28626907.3029889.09021851.6130196.19084542.930101.30188362.3170814.11103829.627112.24115922.930101.39036683.3029889.1492076.5742656.33311194.8138383.55171841.2395726.2186065.4315802.4840533.5760284.7963484.1444482.312295.2166713.6870434.2166713 1.1242564 0 .5343715-.0986461 1.0270962-.2959412 1.478189-.1972952.4510928-.4914719.8397208-.8825391 1.1658956-.3910671.3261748-.8737283.5794769-1.447998.7599141-.5742697.1804371-1.2348462.2706543-1.9817492.2706543-.3734514 0-.7468974-.0346989-1.1203489-.1040978-.3734514-.0693989-.7345666-.163086-1.0833562-.2810641-.3487896-.1179781-.6711509-.2585088-.9670936-.4215962s-.5496041-.3383169-.7609916-.525694l.7609916-1.1867151c.0916013-.1387978.2008166-.2480994.3276492-.3279081.1268326-.0798088.2924171-.1197125.4967584-.1197125.1902489 0 .361118.0416387.5126126.1249174.1514944.0832786.3153173.1734958.4914737.2706543.1761564.0971584.3822562.1873757.6183058.2706543.2360495.0832787.5337493.1249174.8931083.1249174.2536651 0 .4685727-.0260242.644729-.0780734.1761564-.0520491.3170794-.1231819.4227732-.2134005.1056938-.0902185.1832015-.1908454.2325252-.3018837.0493238-.1110382.0739853-.2255446.0739853-.3435228 0-.2151365-.0739846-.392101-.2219558-.5308988-.1479714-.1387978-.3417405-.2585091-.5813132-.3591375-.2395726-.1006284-.5126109-.1943155-.819123-.2810641-.3065121-.0867486-.6183041-.1856406-.9353856-.2966788-.3170814-.1110382-.6288735-.2446291-.9353856-.4007766-.3065121-.1561475-.5795504-.3539314-.819123-.5933576-.2395726-.23942615-.4333417-.53263212-.5813131-.87962654-.1479713-.34699449-.2219559-.76685149-.2219559-1.2595836 0-.45803272.0898384-.89350425.2695179-1.30642766s.4491947-.77552719.8085537-1.08782221c.3593589-.31229502.8103125-.56039234 1.3528741-.74429941.5425616-.18390706 1.176715-.27585921 1.9024792-.27585921.3945903 0 .7768438.03469892 1.1467722.10409782.3699284.06939889.7169512.16655588 1.0410789.29147388.3241277.12491802.6200659.27238845.8878236.44241574.2677577.17002728.5038037.35566654.7081451.55692333l-.7398531 1.13466623zm-24.1274293-2.3630205h2.6211936c.2325264 0 .4333417.05204839.6024517.15614674.1691102.10409834.2712793.23942414.3065106.40598149l1.0992102 4.8405486c.0845551.3678141.1620627.725213.2325252 1.0722075.0704626.3469945.1338779.6905138.190248 1.0305684.0986475-.3400546.2025782-.681839.3117952-1.0253635.1092169-.3435245.2166707-.7026584.3223645-1.0774124l1.3740127-4.85095838c.0422776-.15961745.1444468-.29320832.3065106-.4007766.1620639-.10756829.3487868-.16135163.5601744-.16135163h1.4585675c.2325263 0 .43158.05378334.597167.16135163.165587.10756828.2695177.24115915.3117952.4007766l1.3105968 4.85095838c.0986476.3678141.1990552.725213.3012259 1.0722075s.1990552.6974536.2906566 1.051388c.05637-.3469945.12507-.6922488.2061019-1.0357733.0810319-.3435245.1673472-.7061283.2589485-1.0878222l1.1626263-4.8405486c.0352312-.16655735.1356388-.30188315.3012258-.40598149.165587-.10409835.3540714-.15614674.5654591-.15614674h2.4943616L62.7806398 15.5834435h-2.6634709c-.1409251 0-.2607096-.0416387-.3593572-.1249174-.0986476-.0832786-.1761552-.2220744-.2325252-.4163913l-1.5642608-5.38185723c-.0704624-.24289611-.1374008-.48231868-.2008171-.71827489-.0634163-.23595629-.1197855-.47190895-.1691093-.70786516-.0493238.24289611-.1039315.4840536-.1638246.72347979-.0598932.2394262-.1285931.48058377-.2061019.72347988l-1.5853994 5.36103761c-.1056938.3608743-.3382167.5413087-.6975757.5413087h-2.5366389l-3.403324-10.79494383zm-4.5107548-.1665565c.7257643 0 1.3898639.11103656 1.9923186.33311302.6024547.22207645 1.1203467.54477646 1.5536914.96810972.4333446.42333324.7715598.94208219 1.0146556 1.55626239.2430957.61418021.3646418 1.30989364.3646418 2.08716124 0 .24289619-.0105693.44067996-.031708.59335756-.0211388.1526776-.0598926.2741238-.1162626.3643424-.0563701.0902185-.1321162.1526767-.2272406.1873761-.0951244.0346994-.2166705.0520489-.3646419.0520489h-6.3204587c.1056938.9021856.3840167 1.5562604.834977 1.9622439.4509603.4059835 1.0322676.6089722 1.7439393.6089722.3804977 0 .7081436-.0451086.9829476-.1353272.2748039-.0902185.5196575-.1908454.7345684-.3018837.2149107-.1110382.4122029-.2116651.5918824-.3018836.1796794-.0902186.3681639-.1353272.565459-.1353272.2607115 0 .4580036.0936871.5918825.2810641l.9512396 1.1554859c-.3382202.3816939-.7028584.6922492-1.0939255.9316754-.3910672.2394262-.7926976.4268004-1.2049036.5621282-.4122059.1353279-.8244056.229015-1.2366114.2810642-.4122059.0520491-.8050288.0780733-1.1784802.0780733-.7680417 0-1.4885105-.1231812-2.1614278-.3695472-.6729173-.2463661-1.2612708-.6124398-1.765078-1.098232-.5038071-.4857923-.9019145-1.0895536-1.1943341-1.811302-.2924196-.7217486-.4386272-1.5614625-.4386272-2.51916734 0-.72174842.1250692-1.40531728.3752112-2.05072698.250142-.64540971.6094957-1.21100222 1.0780716-1.69679446.4685759-.48579226 1.0357909-.87095033 1.7016619-1.15548579.6658711-.28453547 1.4180475-.42680106 2.2565517-.42680106zm.0634161 2.22769332c-.6271167 0-1.116824.17522958-1.4691368.52569399-.3523127.35046441-.5848356.85533382-.6975757 1.51462325h4.0903303c0-.25677591-.0334691-.50660813-.1004086-.74950431-.0669394-.24289611-.1761547-.45976438-.3276492-.65061134-.1514945-.19084696-.3505482-.34525718-.5971671-.46323529-.2466189-.11797812-.5460802-.1769663-.8983929-.1769663zm-5.6570398-.80096886c0 .22207646-.0422769.43373991-.126832.6349967-.0845551.20125679-.1832011.37475142-.2959412.52048909l-4.5765195 5.95439528h4.8935994v2.3942498h-8.6668498V14.241166c0-.1318579.0369923-.2966778.110978-.4944646.0739856-.1977869.1779163-.386896.3117952-.5673332l4.6187968-6.02726369h-4.7456288V4.75785468h8.4766019v1.29081295zm-9.7272057 1.10285254c-.0845551.1318579-.1743935.225545-.2695179.28106411-.0951245.05551912-.2166705.08327825-.3646419.08327825-.1550176 0-.3100329-.03296397-.4650505-.09889292-.1550176-.06592895-.3223636-.13706175-.5020431-.21340053s-.3822563-.14747158-.6077364-.21340053c-.2254802-.06592895-.4826646-.09889293-.7715611-.09889293-.4157289 0-.7345672.07807258-.9565243.23422009-.221957.15614751-.3329338.3730158-.3329338.65061137 0 .20125683.0722231.36781161.2166713.49966951.1444482.1318579.3364557.24809936.5760284.34872768.2395727.1006284.5108494.19605048.8138383.28626907.302989.09021851.6130195.19084542.9301009.30188362.3170815.11103829.6271121.24115922.930101.39036683.3029889.1492076.5742657.33311194.8138383.55171841.2395727.2186065.4315802.4840533.5760285.7963484.1444482.312295.2166712.6870434.2166712 1.1242564 0 .5343715-.0986461 1.0270962-.2959412 1.478189-.1972951.4510928-.4914719.8397208-.882539 1.1658956-.3910671.3261748-.8737283.5794769-1.447998.7599141-.5742698.1804371-1.2348462.2706543-1.9817492.2706543-.3734515 0-.7468974-.0346989-1.1203489-.1040978-.3734515-.0693989-.7345666-.163086-1.0833562-.2810641-.3487896-.1179781-.6711509-.2585088-.9670936-.4215962s-.549604-.3383169-.7609917-.525694l.7609917-1.1867151c.0916013-.1387978.2008166-.2480994.3276492-.3279081.1268326-.0798088.2924171-.1197125.4967585-.1197125.1902488 0 .3611179.0416387.5126124.1249174.1514945.0832786.3153175.1734958.4914738.2706543.1761563.0971584.3822562.1873757.6183057.2706543.2360496.0832787.5337494.1249174.8931083.1249174.2536652 0 .4685727-.0260242.6447292-.0780734.1761563-.0520491.3170792-.1231819.4227731-.2134005.1056938-.0902185.1832014-.1908454.2325252-.3018837.0493238-.1110382.0739853-.2255446.0739853-.3435228 0-.2151365-.0739845-.392101-.2219559-.5308988-.1479714-.1387978-.3417404-.2585091-.5813131-.3591375-.2395727-.1006284-.5126109-.1943155-.819123-.2810641-.306512-.0867486-.6183042-.1856406-.9353856-.2966788-.3170815-.1110382-.6288736-.2446291-.9353856-.4007766-.3065121-.1561475-.5795503-.3539314-.819123-.5933576-.2395727-.23942615-.4333418-.53263212-.5813131-.87962654-.1479713-.34699449-.2219559-.76685149-.2219559-1.2595836 0-.45803272.0898384-.89350425.2695179-1.30642766s.4491947-.77552719.8085536-1.08782221c.359359-.31229502.8103125-.56039234 1.3528741-.74429941.5425617-.18390706 1.176715-.27585921 1.9024793-.27585921.3945902 0 .7768438.03469892 1.1467721.10409782.3699284.06939889.7169513.16655588 1.041079.29147388.3241277.12491802.620066.27238845.8878236.44241574.2677576.17002728.5038037.35566654.708145.55692333l-.7398529 1.13466623zm-14.8686972-2.3630205v6.84963643c0 .5343715.1233075.9472888.3699265 1.2387641.2466189.2914754.6094956.4372109 1.0886409.4372109.359359 0 .6958126-.0728678 1.0093709-.2186055.3135584-.1457376.6183043-.3504613.914247-.6141771V4.78849967h3.2764919V15.5834435h-2.0293111c-.4086828 0-.6764364-.1804344-.8032691-.5413087l-.2008171-.6245869c-.2113877.2012568-.4298183.3834262-.6552984.5465136-.2254802.1630874-.4668108.3018831-.7239991.4163913-.2571883.1145081-.5337497.2047254-.8296923.2706543-.2959428.065929-.6200656.0988929-.9723783.0988929-.5989316 0-1.1291544-.1023618-1.590684-.3070885-.4615297-.2047268-.8508294-.4909929-1.1679109-.8588071-.3170814-.3678141-.5566505-.8015506-.7187144-1.3012227-.1620638-.499672-.2430945-1.0479151-.2430945-1.6447456V4.78849967h3.276492zM0 1.39936902L3.27649199 0v5.93357568c.40868276-.39557368.87196705-.71306885 1.38986676-.95249504.51789971-.23942618 1.12563004-.35913747 1.82320925-.35913747.57074662 0 1.09920778.12144624 1.58539933.36434236.48619159.24289612.90543741.59856012 1.25775017 1.06700264.35231276.46844254.62887404 1.04270977.8296923 1.72281891.2008183.68010914.3012259 1.45389517.3012259 2.32138142 0 .811967-.1144999 1.5614638-.3435032 2.2485128-.22900327.6870491-.54960308 1.2838706-.96180896 1.7904825-.41220587.5066119-.90543629.9021797-1.47970603 1.1867151-.57426975.2845355-1.21018468.4268011-1.90776388.4268011-.32412771 0-.61478135-.031229-.87196965-.093688-.25718829-.062459-.49323427-.1509413-.70814503-.2654495-.21491077-.1145081-.41220294-.2515689-.59188243-.4111863-.17967949-.1596175-.35407168-.3331121-.52318178-.5204891l-.11626263.5413086c-.04932377.2220765-.13916218.3747518-.26951789.4580304-.1303557.0832787-.30122481.1249174-.51261245.1249174H0V1.39936902zm5.34808046 5.64805333c-.23957265 0-.45624172.0225543-.65001373.06766358-.19377199.04510928-.37344879.1093023-.53903578.19258097-.16558698.08327867-.31884071.1891104-.45976581.31749835-.14092508.12838795-.28184807.27585836-.42277315.44241575v4.580304c.2466189.2706557.51437256.4597649.803269.5673332.28889643.1075682.59188084.1613516.90896229.1613516.30298894 0 .58131182-.0589882.83497699-.1769664.25366517-.1179781.47385732-.3070872.66058306-.567333.18672575-.2602459.33293334-.5985604.43862716-1.0149538s.15853993-.9229976.15853993-1.5198281c0-.56907096-.0422769-1.04791618-.12683195-1.43654998-.08455505-.38863381-.20257805-.70265908-.35407252-.94208523-.15149447-.23942619-.33293281-.41118587-.54432044-.51528421-.21138764-.10409834-.44743363-.15614673-.70814505-.15614673z" fill="#2D232E" fill-rule="nonzero"/><path d="M3.19168312 12.8934665s.00696271-.2023666.00696271-.3028424V8.89761098 5.82600561c.41517711-.39990845.88582342-.7208828 1.41195304-.96293265C5.13672849 4.62102311 5.75411623 4.5 6.46278062 4.5c.57981631 0 1.11667522.12277707 1.6105928.36833489.49391764.24555782.91982566.60511924 1.277737 1.07869504.35791133.4735758.63886744 1.05413594.84287688 1.74169785C10.3979968 8.37628971 10.5 9.15855501 10.5 10.0355472c0 .8208648-.1163195 1.5785747-.3489618 2.2731525-.23264236.6945778-.55833681 1.2979394-.97709302 1.8101029-.41875621.5121635-.91982452.9120659-1.50321995 1.1997194-.58339542.2876535-1.22941564.431478-1.93808002.431478-.32927841 0-.62455081-.0315712-.88582606-.0947147-.26127526-.0631434-.50107223-.1525953-.71939813-.2683583-.2183259-.115763-.41875322-.2543257-.60128798-.4156922C3.34359827 14.8098682 3.17179743 14.6447233 3 14.455293l.19168312-1.5618265zm2.11147066-5.94140851c-.24337968 0-.46349183.02280146-.66034306.06840505-.19685121.0456036-.37938324.11050005-.54760156.19469131-.16821831.08419125-.32390739.19118269-.46707192.32097755-.14316451.12979484-.28632689.2788813-.42949141.44726377v4.63049583c.25053791.2736215.52254642.464803.81603369.57355.29348727.1087471.60128638.1631197.92340656.1631197.30780372 0 .59054941-.0596345.84824555-.1789054.25769614-.119271.48138735-.3104524.67108034-.5735501.189693-.2630976.33822396-.6051195.44559735-1.0260758.10737339-.4209562.16105929-.933112.16105929-1.5364827 0-.57530689-.04294872-1.0593993-.12884743-1.45229182-.08589872-.39289252-.2057972-.71035893-.35969907-.9524088-.15390186-.24204985-.33822342-.41569171-.5529702-.52093078-.21474678-.10523906-.45454376-.15785781-.71939813-.15785781z" fill="url(#a)" fill-rule="nonzero"/><path d="M17.7563993 12.2004449v.1948542c-.2891747.2706567-.5869514.4807685-.893339.6303419-.3063875.1495734-.6351467.224359-.9862875.224359-.4681877 0-.8227657-.1495712-1.0637446-.4487179-.240979-.2991469-.3614667-.7229318-.3614667-1.2713676V4.5H11.25v7.0299145c0 .6125387.0791776 1.1752111.2375352 1.6880342.1583576.5128231.3924479.9579754.702278 1.3354701.3098301.3774947.6902269.6712952 1.1412018.8814102.4509749.2101151.9690719.315171 1.5543064.315171.3442557 0 .6609662-.0338316.9501409-.1014957.2891748-.0676642.5594114-.1602559.8107181-.2777778.2513066-.1175219.4871181-.2599707.7074418-.4273505.2203236-.1673797.4337589-.3543436.6403123-.5608974L18 14.4022935l-.2337514-1.9778097-.0098493-.2240389z" fill="url(#b)" fill-rule="nonzero"/><path d="M36.2650671 9.75L38.25 6.75h-3.2711606L33 9.75h3.2650671z" fill="url(#c)"/><path d="M34.0425953 13.5a85.86043629 85.86043629 0 01.0075115-.008724C34.6937422 12.7438456 36 11.25 36 11.25h-3.3643393L30.75 13.5h3.2925953z" fill="url(#d)" transform="rotate(-180 33.375 12.375)"/><path d="M42.3428049 10.5c.109724.9444248.3486662 1.6297931.8104938 2.0561252.4644836.4287839 1.063223.6431727 1.7962362.6431727.3919081 0 .7293794-.0476419 1.0124241-.1429272.2830446-.0952854.535241-.2015636.7565964-.3188378.2213555-.1172742.424564-.2235524.6096317-.3188378.1850677-.0952853.3792044-.1429273.582416-.1429273.2685296 0 .4717381.0989487.6096317.296849L49.5 13.7929958c-.3483627.4031302-.7239356.7311267-1.12673.9839993s-.8164689.4507699-1.2410359.5936979c-.4245671.142928-.8491277.2418766-1.2736948.2968489-.4245671.0549724-.8291697.0824581-1.2138202.0824581-.7910737 0-1.5331477-.1300992-2.2262444-.3903014-.6930966-.2602022-1.2990934-.6468349-1.8180087-1.1599098-.5189153-.5130748-.9289611-1.1507439-1.2301497-1.9130265-.2014391-.5098252-.298846-1.0911626-.3655592-1.7124573C39.0027748 10.5558444 39.0011838 10.5308412 39 10.5h3.3428049z" fill="url(#e)"/><path d="M60.5022993 8.25l.4947229 2.1167613c.0851937.3671983.1719073.7239988.2601435 1.0704123.0852005.3344951.1661445.6722151.2428343 1.0131695L60.8309059 15.75h-.2537645c-.1217052 0-.2251531-.041569-.3103467-.1247082-.0851937-.0831393-.1521305-.2217026-.2008126-.4156941L59.25 11.9642952 60.5022993 8.25z" fill="url(#f)"/><path d="M52.9788102 8.25l.5706837 2.2714614c.0907094.3566461.1738584.7031931.2494496 1.0396515.0743277.3308347.1413459.6584115.2010565.9827399L52.9140295 15.75h-.6798156L51 12.2116267 52.9788102 8.25z" fill="url(#g)"/><path d="M55.5 8.04567798l.6693076-2.2855638c.0442082-.16143754.1510431-.29655171.320508-.40534658.0680674-.04369865.1402947-.07862115.2166824-.1047676L57.75 8.78946407c-.0457243.21106681-.0955435.42083122-.1494588.62929787-.0626282.24215634-.1344655.4860637-.2155138.73172956L56.8195498 12 55.5 8.04567798z" fill="url(#h)"/><path d="M78.0094726 6.75v2.23806339h.5346717c.2247182 0 .3971288-.02705029.5172368-.08115172.120108-.05410144.2344026-.15215885.3428872-.29417515L80.836938 6.75H81.75v6h-1.3645138l-.8184917-1.3375278c-.1084847-.169067-.220842-.2789589-.3370756-.329679-.1162336-.0507201-.2905813-.0760798-.5230484-.0760798h-.6973979V12.75H78v-6h.0094726z" fill="url(#i)"/><path d="M80.1983705 23.9047852v-7.2875977h.3944929c.1314982 0 .2073619.0610346.2275919.1831055l.0682776 1.0546875c.1466712-.2001963.3034556-.3833.4703567-.5493164.166902-.1660165.3451809-.3088373.5348418-.4284668.1896609-.1196295.3919624-.212402.606912-.2783204.2149488-.0659182.4412746-.0988769.6789823-.0988769.5512816 0 .9912884.1550277 1.3200343.4650879.3287452.3100601.5512775.740964.6676028 1.2927246.0910375-.3027359.2187406-.5639638.3831136-.7836914.1643729-.2197276.3527669-.4016106.5651867-.5456543.2124206-.1440437.4438035-.2514645.694156-.3222656.2503525-.0708012.5070233-.1062012.7700197-.1062012.3742638 0 .7105909.0598139 1.0089911.1794433.2984001.1196295.5525419.2966298.7624336.5310059.2098909.2343762.370468.5224593.4817362.8642578.1112674.3417986.1669003.7324197.1669003 1.1718751v4.6582031h-.7282944v-4.6582031c0-.7128942-.1593126-1.2561017-.4779428-1.6296388-.3186309-.373537-.7738098-.5603027-1.3655522-.5603027-.2629964 0-.5146101.0463863-.7548468.1391602-.2402375.0927739-.4526548.230712-.6372578.4138183-.184603.1831064-.3312725.4113756-.4400109.6848145-.1087393.2734389-.1631077.5908185-.1631077.9521485v4.6582031h-.7207084v-4.6582031c0-.7080114-.1466686-1.2499982-.4400109-1.6259766-.293343-.3759785-.7207059-.5639649-1.2821017-.5639649-.4096683 0-.7889844.118407-1.1379603.3552247-.3489767.2368175-.6600159.5651834-.9331274.9851073v5.5078126h-.7207082zm-8.6678843-6.3134766c-.0252882.0244142-.0493115.0451659-.0720709.0622558-.0227592.01709-.0543689.0256348-.0948299.0256348-.0505763 0-.1201176-.0329586-.2086261-.0988769-.0885084-.0659183-.2060964-.1379391-.3527676-.2160645-.1466711-.0781254-.3300073-.1501461-.550014-.2160644-.2200068-.0659184-.4867926-.098877-.8003653-.098877-.4349559 0-.8205941.0744621-1.1569261.2233886-.3363322.1489266-.6195549.3625475-.8496769.6408692-.230122.2783217-.4058719.6152324-.5272549 1.0107422-.121383.3955098-.1820736.8398413-.1820736 1.3330078 0 .5126979.061955.9667949.1858668 1.3623047.1239118.3955098.2996617.7287584.5272548.9997559.2275932.2709974.5032297.4772942.8269178.6188964.323688.1416024.682774.2124024 1.0772688.2124024.3641491 0 .6688665-.0415035.9141613-.1245117.2452949-.0830083.4475969-.1733394.6069121-.2709961.1593152-.0976568.285754-.1879879.37932-.2709961.0935662-.0830082.168165-.1245117.2237988-.1245117.0657492 0 .1163247.0244138.1517281.0732422l.1972464.234375c-.1163254.1464851-.2629943.2832025-.4400112.4101562-.1770169.1269538-.3767902.236816-.5993257.3295899-.2225355.0927738-.4640336.1647946-.7245013.2160644-.2604677.0512698-.532311.0769043-.815538.0769043-.4804745 0-.919217-.0842277-1.3162406-.2526855-.3970236-.1684579-.7384082-.4125961-1.0241641-.7324219-.2857558-.3198259-.5082881-.7116676-.6676033-1.1755371C66.0796564 21.3754859 66 20.8481475 66 20.2573242c0-.5566434.0758633-1.0644508.2275921-1.5234375.1517287-.4589866.3729965-.8544905.66381-1.1865234.2908135-.3320329.6473708-.5895987 1.0696825-.7727051.4223117-.1831064.9065722-.2746582 1.4527957-.2746582.4905898 0 .9268035.0756828 1.3086542.2270508.3818507.151368.7143847.356444.9976117.6152344l-.18966.2490234zm5.5250071-.8239746c.4273694.1782236.7877198.4309066 1.0810621.7580567.2933423.32715.5171389.7214332.6713965 1.1828612.1542575.4614281.2313852.9777804.2313852 1.5490723 0 .571292-.0771277 1.0864235-.2313852 1.5454102-.1542576.4589866-.3780542.8520491-.6713965 1.1791992-.2933423.3271501-.6536927.5786124-1.0810621.7543945C76.6281239 23.9121103 76.1438635 24 75.6026975 24c-.5411659 0-1.0254263-.0878897-1.4527957-.2636719-.4273694-.1757821-.7889842-.4272444-1.0848554-.7543945-.2958711-.3271501-.520932-.7202126-.6751896-1.1791992-.1542576-.4589867-.2313852-.9741182-.2313852-1.5454102 0-.5712919.0771276-1.0876442.2313852-1.5490723.1542576-.461428.3793185-.8557112.6751896-1.1828612.2958712-.3271501.657486-.5798331 1.0848554-.7580567.4273694-.1782236.9116298-.267334 1.4527957-.267334.541166 0 1.0254264.0891104 1.4527958.267334zm-1.4527958 6.6833496c.4501288 0 .8433532-.0744621 1.1796854-.2233886.3363321-.1489266.6170261-.3625475.8420904-.6408692.2250644-.2783217.3932279-.6140117.5044957-1.0070801.1112677-.3930684.1669008-.8337378.1669008-1.3220215 0-.4834009-.0556331-.9228496-.1669008-1.3183593-.1112678-.3955098-.2794313-.7336412-.5044957-1.0144043-.2250643-.2807632-.5057583-.4968255-.8420904-.6481934-.3363322-.151368-.7295566-.2270508-1.1796854-.2270508-.4501287 0-.8433531.0756828-1.1796853.2270508-.3363321.1513679-.6170261.3674302-.8420905.6481934-.2250643.2807631-.3944922.6188945-.5082888 1.0144043-.1137966.3955097-.1706941.8349584-.1706941 1.3183593 0 .4882837.0568975.9289531.1706941 1.3220215s.2832245.7287584.5082888 1.0070801c.2250644.2783217.5057584.4919426.8420905.6408692.3363322.1489265.7295566.2233886 1.1796853.2233886z" fill-opacity=".5" fill="#000" fill-rule="nonzero"/></g></svg>