<svg viewBox="0 0 896 205" xmlns="http://www.w3.org/2000/svg"><defs/><g fill="var(--text)" fill-rule="evenodd"><path d="M63.492.3c6.424 0 12.282.567 17.573 1.702 5.291 1.134 9.826 2.993 13.606 5.577 3.779 2.584 6.708 6.02 8.786 10.305 2.079 4.286 3.118 9.58 3.118 15.882 0 6.807-1.543 12.48-4.63 17.017-3.086 4.538-7.652 8.256-13.7 11.156 8.315 2.395 14.52 6.586 18.614 12.573C110.953 80.5 113 87.716 113 96.162c0 6.806-1.323 12.699-3.968 17.678-2.646 4.979-6.205 9.044-10.677 12.195-4.472 3.152-9.574 5.483-15.306 6.996-5.732 1.513-11.62 2.269-17.668 2.269H0V.3zM61.98 75.174H29.667v37.059h31.746c2.897 0 5.669-.284 8.314-.851 2.646-.567 4.976-1.513 6.992-2.836 2.016-1.324 3.622-3.12 4.819-5.389 1.196-2.269 1.795-5.168 1.795-8.697 0-6.933-1.953-11.88-5.858-14.843-3.905-2.962-9.07-4.443-15.495-4.443zm-4.535-51.807H29.667v31.576h30.045c5.291 0 9.637-1.26 13.039-3.782 3.401-2.52 5.102-6.617 5.102-12.29 0-3.15-.567-5.735-1.7-7.752-1.135-2.016-2.646-3.592-4.536-4.727-1.89-1.134-4.063-1.922-6.52-2.363a43.227 43.227 0 00-7.652-.662zM156.852 138.3c5.69 0 11.255-1.258 16.692-3.774 5.438-2.515 9.864-6.603 13.279-12.264h.569v13.585H213V38.3h-26.936v51.132c0 9.937-1.644 17.076-4.932 21.415-3.288 4.34-8.6 6.51-15.934 6.51-6.45 0-10.939-1.982-13.468-5.944-2.53-3.962-3.794-9.968-3.794-18.019V38.3H121v60c0 6.038.537 11.54 1.612 16.51 1.075 4.968 2.94 9.182 5.596 12.64 2.656 3.46 6.292 6.133 10.907 8.02 4.616 1.887 10.528 2.83 17.737 2.83zM267.024 138.3a83.86 83.86 0 0016.433-1.61c5.383-1.072 10.164-2.934 14.344-5.585 4.18-2.65 7.567-6.153 10.163-10.508 2.597-4.355 3.895-9.751 3.895-16.189 0-4.544-.887-8.362-2.66-11.455a24.293 24.293 0 00-7.029-7.762c-2.913-2.083-6.238-3.756-9.974-5.018a114.264 114.264 0 00-11.494-3.219c-3.8-.883-7.535-1.704-11.208-2.461-3.673-.757-6.935-1.61-9.784-2.556-2.85-.947-5.161-2.177-6.935-3.692-1.773-1.515-2.66-3.471-2.66-5.87 0-2.02.507-3.629 1.52-4.828a9.974 9.974 0 013.705-2.745c1.457-.631 3.072-1.042 4.845-1.23 1.773-.19 3.42-.285 4.94-.285 4.812 0 8.991.915 12.538 2.746 3.546 1.83 5.51 5.333 5.89 10.508h25.646c-.506-6.059-2.058-11.076-4.654-15.053-2.597-3.976-5.858-7.163-9.784-9.561-3.926-2.398-8.39-4.102-13.394-5.112-5.002-1.01-10.164-1.515-15.483-1.515-5.32 0-10.512.473-15.578 1.42-5.066.947-9.626 2.588-13.679 4.923-4.053 2.335-7.314 5.522-9.784 9.561-2.47 4.04-3.704 9.215-3.704 15.526 0 4.292.886 7.92 2.66 10.887 1.773 2.966 4.116 5.428 7.029 7.384 2.913 1.957 6.237 3.535 9.974 4.734 3.736 1.199 7.567 2.24 11.493 3.124 9.626 2.02 17.13 4.039 22.513 6.059 5.383 2.02 8.074 5.049 8.074 9.088 0 2.398-.57 4.386-1.71 5.964a12.943 12.943 0 01-4.274 3.787c-1.71.946-3.61 1.64-5.7 2.083-2.09.441-4.084.662-5.984.662-2.66 0-5.225-.315-7.694-.946-2.47-.632-4.655-1.61-6.555-2.935-1.9-1.326-3.45-3.03-4.654-5.112-1.203-2.083-2.226-6.54-2.226-9.443-7.22-1.664-12.979-3.46-17.274-5.387-1.255-.563-3.823-2.503-7.703-5.82.076 1.95-.278 8.057 0 10.702.657 6.255 2.302 15.786 4.216 18.847 2.723 4.354 6.206 7.857 10.448 10.508 4.243 2.65 9.088 4.544 14.534 5.68a81.654 81.654 0 0016.718 1.704zM410 135.3v-20.282h-54.568L406.4 57.582V37.3h-82.61v20.282h47.178L320 115.018V135.3zM464.15 35.3c8.359 0 15.64 1.61 21.846 4.828 6.206 3.219 11.303 7.542 15.292 12.97 3.99 5.427 6.87 11.613 8.644 18.555 1.773 6.942 2.406 14.2 1.9 21.774h-70.857c.38 8.71 2.596 15.02 6.649 18.934 4.052 3.913 9.878 5.87 17.476 5.87 5.446 0 10.132-1.358 14.057-4.072 3.926-2.713 6.333-5.585 7.22-8.615h23.744c-3.799 11.74-9.624 20.133-17.476 25.182-7.852 5.05-17.35 7.574-28.495 7.574-7.725 0-14.69-1.23-20.896-3.692-6.205-2.461-11.46-5.964-15.767-10.508-4.305-4.544-7.63-9.972-9.973-16.283-2.343-6.312-3.514-13.254-3.514-20.828 0-7.32 1.203-14.137 3.61-20.448 2.406-6.311 5.825-11.77 10.257-16.378 4.433-4.607 9.72-8.236 15.862-10.887 6.142-2.65 12.95-3.976 20.421-3.976zm-.76 20.26c-4.305 0-7.883.725-10.732 2.177-2.85 1.451-5.13 3.25-6.84 5.396-1.709 2.146-2.912 4.418-3.608 6.816-.697 2.398-1.109 4.544-1.235 6.437h43.881c-1.266-6.816-3.514-11.991-6.743-15.525-3.23-3.535-8.137-5.302-14.723-5.302zM713.165 138.3a83.86 83.86 0 0016.433-1.61c5.383-1.072 10.164-2.934 14.344-5.585 4.18-2.65 7.567-6.153 10.163-10.508 2.597-4.355 3.895-9.751 3.895-16.189 0-4.544-.887-8.362-2.66-11.455a24.293 24.293 0 00-7.029-7.762c-2.913-2.083-6.238-3.756-9.974-5.018a114.264 114.264 0 00-11.494-3.219c-3.8-.883-7.535-1.704-11.208-2.461-3.673-.757-6.935-1.61-9.784-2.556-2.85-.947-5.161-2.177-6.935-3.692-1.773-1.515-2.66-3.471-2.66-5.87 0-2.02.507-3.629 1.52-4.828a9.974 9.974 0 013.705-2.745c1.457-.631 3.072-1.042 4.845-1.23 1.773-.19 3.42-.285 4.94-.285 4.812 0 8.991.915 12.538 2.746 3.546 1.83 5.414 4.517 5.794 9.692 5.13.78 9.912 1.905 14.344 3.375 2.748.912 6.46 2.986 11.138 6.221-.089-1.065.26-7.521 0-10.474-.47-5.34-2.254-10.081-4.394-13.359-2.597-3.976-5.858-7.163-9.784-9.561-3.926-2.398-8.39-4.102-13.394-5.112-5.002-1.01-10.164-1.515-15.483-1.515-5.32 0-10.512.473-15.578 1.42-5.066.947-9.626 2.588-13.679 4.923-4.053 2.335-7.314 5.522-9.784 9.561-2.47 4.04-3.704 9.215-3.704 15.526 0 4.292.886 7.92 2.66 10.887 1.773 2.966 4.116 5.428 7.029 7.384 2.913 1.957 6.237 3.535 9.974 4.734 3.736 1.199 7.567 2.24 11.493 3.124 9.626 2.02 17.13 4.039 22.513 6.059 5.383 2.02 8.074 5.049 8.074 9.088 0 2.398-.57 4.386-1.71 5.964a12.943 12.943 0 01-4.274 3.787c-1.71.946-3.61 1.64-5.7 2.083-2.09.441-4.084.662-5.984.662-2.66 0-5.225-.315-7.694-.946-2.47-.632-4.655-1.61-6.555-2.935-1.9-1.326-3.45-3.03-4.654-5.112-1.203-2.083-1.805-4.576-1.805-7.48H667c.253 6.565 1.741 12.024 4.465 16.379 2.723 4.354 6.205 7.857 10.448 10.508 4.243 2.65 9.088 4.544 14.534 5.68a81.654 81.654 0 0016.718 1.704zM792.822 135.3v-33.655l10.389-10.021 25.3 43.676H861l-36.833-61.828L861 37.548h-31.733l-36.445 35.168V.3H766v135zM888 135.3v-98h-27v98z" fill-rule="nonzero"/><path d="M543.082 135.3L512 37.3h28.429l18.213 67.196 16.47-67.196h26.155l16.869 67.205L636.329 37.3H664l-30.893 98h-27.67L587.8 68.676 570.943 135.3h-27.86z"/><path d="M684.102 181.49v-4H629v4h55.102zM731.854 205c3.543 0 6.476-.475 8.801-1.425 2.325-.95 4.226-2.102 5.702-3.454 1.476-1.353 2.601-2.815 3.376-4.386.775-1.572 1.347-3.016 1.716-4.331l-1.55-.549c-.147.658-.535 1.7-1.162 3.125-.628 1.426-1.569 2.851-2.823 4.277-1.255 1.425-2.915 2.668-4.982 3.728-2.066 1.06-4.613 1.59-7.639 1.59-3.173 0-5.682-.731-7.528-2.193-1.845-1.462-3.247-3.363-4.206-5.702-.96-2.34-1.55-4.934-1.772-7.785-.221-2.851-.332-5.702-.332-8.553 0-3.07.13-5.976.388-8.717.258-2.741.812-5.154 1.66-7.237.85-2.083 2.048-3.746 3.598-4.989 1.55-1.243 3.654-1.864 6.31-1.864 1.92 0 3.525.42 4.816 1.261 1.292.84 1.937 1.992 1.937 3.454 0 .292-.092.804-.276 1.535-.185.731-.37 1.499-.554 2.303-.184.804-.369 1.571-.553 2.302-.185.731-.277 1.243-.277 1.535 0 1.974.72 3.272 2.159 3.893 1.439.621 3.007.932 4.705.932 2.287 0 4.059-.493 5.313-1.48 1.255-.987 1.882-2.687 1.882-5.099 0-1.827-.46-3.49-1.383-4.989-.923-1.499-2.215-2.778-3.875-3.838-1.66-1.06-3.635-1.882-5.923-2.467-2.288-.585-4.834-.877-7.638-.877-4.429 0-8.322.804-11.68 2.412-3.358 1.608-6.2 3.637-8.524 6.086-2.325 2.449-4.078 5.135-5.259 8.059-1.18 2.924-1.77 5.738-1.77 8.443 0 3.728.534 6.944 1.604 9.65 1.07 2.704 2.473 4.988 4.207 6.852 1.735 1.864 3.635 3.344 5.701 4.441 2.067 1.096 4.115 1.955 6.145 2.577 2.03.621 3.911 1.023 5.646 1.206 1.734.183 3.08.274 4.04.274zm45.105 0c3.77 0 7.267-.658 10.493-1.974 3.226-1.315 6.034-3.106 8.427-5.372a24.464 24.464 0 005.6-7.95c1.34-3.034 2.01-6.268 2.01-9.704 0-3.363-.67-6.56-2.01-9.594a24.464 24.464 0 00-5.6-7.95c-2.393-2.266-5.201-4.075-8.427-5.427-3.226-1.353-6.723-2.029-10.493-2.029-3.77 0-7.267.676-10.492 2.029-3.226 1.352-6.035 3.161-8.427 5.427a24.464 24.464 0 00-5.6 7.95A23.47 23.47 0 00750.43 180c0 3.436.67 6.67 2.011 9.704a24.464 24.464 0 005.6 7.95c2.392 2.266 5.2 4.057 8.427 5.372 3.225 1.316 6.723 1.974 10.492 1.974zm.51-1.02c-2.799 0-4.988-.675-6.567-2.025-1.579-1.349-2.745-3.118-3.499-5.306-.753-2.188-1.22-4.705-1.4-7.55-.179-2.845-.268-5.726-.268-8.644 0-2.917.09-5.78.269-8.589.18-2.808.646-5.306 1.4-7.494.753-2.189 1.92-3.958 3.498-5.307 1.58-1.35 3.768-2.024 6.567-2.024 2.8 0 4.989.675 6.568 2.024 1.578 1.35 2.745 3.118 3.498 5.307.754 2.188 1.22 4.686 1.4 7.494.18 2.809.27 5.672.27 8.59 0 2.917-.09 5.798-.27 8.643-.18 2.845-.646 5.362-1.4 7.55-.753 2.188-1.92 3.957-3.498 5.306-1.58 1.35-3.769 2.025-6.568 2.025zm55.11 0v-1.533h-6.461V175.73c0-1.825.055-3.376.164-4.654.11-1.277.292-2.409.548-3.394.255-.986.602-1.862 1.04-2.628.438-.767.95-1.515 1.533-2.245 2.19-2.555 4.745-3.832 7.666-3.832 1.679 0 3.212.639 4.599 1.916s2.08 3.522 2.08 6.734v34.82h-6.57v1.533h26.391v-1.533h-6.46v-32.302c0-1.97.383-3.668 1.15-5.091.766-1.424 1.697-2.573 2.792-3.45 1.095-.875 2.226-1.532 3.394-1.97 1.169-.438 2.154-.657 2.957-.657 2.628 0 4.508.821 5.64 2.463 1.131 1.643 1.697 3.997 1.697 7.063v33.944h-6.46v1.533h27.048v-1.533h-7.228v-29.893c0-1.314-.091-2.92-.274-4.818-.182-1.897-.785-3.704-1.807-5.42-1.022-1.715-2.664-3.193-4.927-4.434-2.264-1.241-5.476-1.862-9.637-1.862-.803 0-1.825.092-3.066.274-1.241.183-2.555.584-3.943 1.205-1.387.62-2.755 1.496-4.106 2.628-1.35 1.131-2.573 2.682-3.669 4.653a46.936 46.936 0 00-1.916-3.066c-.693-1.022-1.606-1.952-2.738-2.792-1.131-.84-2.555-1.533-4.27-2.08-1.716-.548-3.851-.822-6.407-.822-2.409 0-4.471.329-6.187.986-1.715.657-3.175 1.442-4.38 2.354-1.205.912-2.172 1.861-2.902 2.847-.73.985-1.314 1.843-1.752 2.573h-.219v-7.774h-20.368v1.533h7.227v43.908h-7.227v1.533h27.048z" fill-opacity=".5" fill-rule="nonzero"/></g></svg>