<svg xmlns="http://www.w3.org/2000/svg" viewBox="0 0 892 199"><defs/><defs><linearGradient id="a" x1="50%" x2="34.7067231%" y1="0%" y2="100%"><stop offset="0%" stop-opacity="0"/><stop offset="100%" stop-color="var(--body)" stop-opacity=".2"/></linearGradient><linearGradient id="b" x1="50.0177208%" x2="61.1960048%" y1=".15827791%" y2="100%"><stop offset=".05278716%" stop-color="var(--body)" stop-opacity=".2"/><stop offset="100%" stop-opacity="0"/></linearGradient><linearGradient id="c" x1="56.185835%" x2="44.530117%" y1="0%" y2="99.5758364%"><stop offset="0%" stop-opacity="0"/><stop offset="99.9392948%" stop-color="var(--body)" stop-opacity=".2"/></linearGradient><linearGradient id="d" x1="43.2858632%" x2="59.7002832%" y1="0%" y2="100%"><stop offset="0%" stop-color="var(--body)" stop-opacity=".2"/><stop offset="100%" stop-opacity="0"/></linearGradient><linearGradient id="e" x1="61.77844%" x2="61.77844%" y1="0%" y2="100%"><stop offset="0%" stop-color="var(--body)" stop-opacity=".2"/><stop offset="100%" stop-opacity="0"/></linearGradient></defs><g fill="none" fill-rule="evenodd"><path fill="var(--text)" fill-rule="nonzero" d="M63.4916388.7c6.4247492 0 12.2826087.5672269 17.5735786 1.70168067 5.2909699 1.13445378 9.8260869 2.99369748 13.6053512 5.57773109 3.7792642 2.58403362 6.7081944 6.01890754 8.7867894 10.30462184 2.078595 4.2857143 3.117893 9.5798319 3.117893 15.882353 0 6.8067226-1.5432 12.4789916-4.629599 17.0168067-3.0863989 4.5378151-7.6530099 8.2563025-13.6998326 11.1554622 8.3143813 2.3949579 14.5186736 6.5861344 18.6128766 12.5735294C110.952899 80.8995798 113 88.1159664 113 96.5613445c0 6.8067225-1.322742 12.6995795-3.968227 17.6785715s-6.204293 9.044118-10.6764218 12.195378c-4.4721293 3.151261-9.574136 5.483193-15.3060201 6.995798C77.317447 134.943697 71.4280936 135.7 65.3812709 135.7H0V.7zm-1.5117057 74.8739496h-32.312709v37.0588234h31.7458194c2.8974359 0 5.6688963-.283613 8.3143812-.85084 2.645485-.567227 4.9760313-1.512605 6.9916388-2.836135 2.0156076-1.323529 3.6217949-3.119748 4.8185619-5.388655 1.196767-2.268908 1.7951505-5.1680674 1.7951505-8.6974791 0-6.9327731-1.9526198-11.8802521-5.8578595-14.842437-3.9052397-2.9621849-9.0702341-4.4432773-15.4949833-4.4432773zm-4.535117-51.8067227h-27.777592v31.5756302h30.0451505c5.2909699 0 9.6371237-1.2605042 13.0384615-3.7815126 3.4013378-2.5210084 5.1020067-6.617647 5.1020067-12.2899159 0-3.1512605-.5668896-5.7352941-1.7006689-7.7521009-1.1337793-2.0168067-2.6454849-3.5924369-4.535117-4.7268907-1.8896322-1.1344538-4.0627091-1.9222689-6.5192308-2.3634454-2.4565218-.4411765-5.0075251-.6617647-7.65301-.6617647zM156.851546 138.7c5.690722 0 11.254983-1.257862 16.692784-3.773585 5.437801-2.515723 9.863917-6.603773 13.27835-12.264151h.569073v13.584906H213V38.7h-26.936082v51.1320755c0 9.9371069-1.643987 17.0754715-4.931959 21.4150945-3.287973 4.339622-8.599313 6.509434-15.934021 6.509434-6.449484 0-10.938831-1.981132-13.468041-5.943396-2.52921-3.962265-3.793815-9.968554-3.793815-18.0188684V38.7H121v60c0 6.037736.537457 11.540881 1.612371 16.509434 1.074914 4.968553 2.940206 9.18239 5.595876 12.641509 2.655671 3.45912 6.291409 6.132076 10.907217 8.018868 4.615807 1.886793 10.527835 2.830189 17.736082 2.830189zm110.172388 0c5.572721 0 11.050452-.536458 16.433194-1.609375s10.163883-2.934743 14.343424-5.585478c4.17954-2.650735 7.567501-6.153493 10.163883-10.508272 2.596381-4.354779 3.894572-9.750919 3.894572-16.188419 0-4.5441178-.88657-8.3624388-2.659708-11.4549634-1.773139-3.0925245-4.116214-5.680147-7.029228-7.7628676-2.913013-2.0827206-6.237648-3.7552083-9.973904-5.0174632-3.736256-1.2622549-7.567501-2.3351716-11.493737-3.21875-3.799582-.8835785-7.535838-1.7040442-11.208768-2.4613971-3.67293-.7573529-6.934238-1.609375-9.783925-2.5560662-2.849687-.9466911-5.161099-2.1773897-6.934238-3.6920956-1.773138-1.5147058-2.659707-3.4712009-2.659707-5.8694853 0-2.0196078.506611-3.6289828 1.519833-4.828125 1.013222-1.1991421 2.248086-2.1142769 3.704593-2.7454044 1.456506-.6311274 3.071329-1.0413603 4.844467-1.2306985 1.773139-.1893382 3.419624-.2840073 4.939457-.2840073 4.812805 0 8.992346.9151348 12.538622 2.7454044 3.546277 1.8302696 5.509395 5.3330269 5.889353 10.508272h25.647182c-.506611-6.0588235-2.058107-11.0762867-4.654489-15.0523897-2.596381-3.9761029-5.857689-7.1632966-9.783924-9.5615809-3.926236-2.3982843-8.390745-4.1023284-13.393529-5.1121323C276.364574 36.204902 271.203474 35.7 265.884059 35.7c-5.319416 0-10.512178.4733456-15.578288 1.4200368-5.06611.9466911-9.625609 2.5876225-13.678497 4.9227941-4.052888 2.3351716-7.314196 5.5223652-9.783925 9.5615809-2.469729 4.0392157-3.704593 9.2144607-3.704593 15.5257353 0 4.2916666.886569 7.9206495 2.659708 10.8869485 1.773138 2.966299 4.116214 5.4276961 7.029227 7.3841912 2.913014 1.9564951 6.237648 3.5343137 9.973904 4.7334558 3.736256 1.1991422 7.567502 2.2405025 11.493737 3.1240809 9.625609 2.0196079 17.129785 4.0392157 22.512526 6.0588236 5.382742 2.0196079 8.074113 5.0490199 8.074113 9.0882349 0 2.398285-.569937 4.386336-1.709812 5.964155-1.139875 1.577818-2.564718 2.840073-4.27453 3.786764-1.709812.946692-3.609604 1.640932-5.699374 2.082721-2.08977.441789-4.084551.662684-5.984342.662684-2.659708 0-5.224426-.315564-7.694155-.946691-2.469728-.631128-4.654488-1.609375-6.55428-2.934743-1.899791-1.325368-3.451287-3.029412-4.654488-5.112132-1.203201-2.082721-2.225726-6.53968-2.225726-9.442866-7.221088-1.664097-12.979264-3.4597761-17.274527-5.3870381-1.255153-.5631807-3.822602-2.5031656-7.702347-5.8199545.075291 1.9509621-.277893 8.056809 0 10.7023416.657036 6.254972 2.30147 15.786023 4.215126 18.846414 2.723034 4.354779 6.205985 7.857537 10.448852 10.508272s9.087335 4.544117 14.533403 5.680147C255.751839 138.131985 261.32456 138.7 267.023934 138.7zM410 135.7v-20.282398h-54.568421L406.4 57.9823985V37.7h-82.610526v20.2823985h47.178947L320 115.417602V135.7zm54.150334-100c8.358389 0 15.640319 1.609375 21.845789 4.828125 6.205471 3.21875 11.302822 7.541973 15.292053 12.9696691 3.989231 5.4276961 6.870342 11.6127451 8.643334 18.5551471 1.772991 6.9424019 2.406203 14.2003676 1.899634 21.773897h-70.856343c.379927 8.7095588 2.596166 15.0208338 6.648718 18.9338238 4.052553 3.91299 9.878096 5.869485 17.476632 5.869485 5.445617 0 10.13138-1.356924 14.05729-4.070772 3.92591-2.713848 6.332113-5.585478 7.218609-8.61489h23.745423c-3.799268 11.738971-9.624811 20.132966-17.476631 25.181986-7.85182 5.049019-17.34999 7.573529-28.494508 7.573529-7.725178 0-14.690502-1.230699-20.895973-3.692096-6.20547-2.461397-11.461124-5.964154-15.766961-10.508272-4.305836-4.544117-7.630196-9.971813-9.973077-16.283088C415.171441 101.90527 414 94.9628676 414 87.3893382c0-7.3210784 1.203101-14.1372549 3.609304-20.4485294 2.406203-6.3112745 5.825544-11.7705269 10.258023-16.3777573 4.432479-4.6072304 9.719793-8.2362133 15.861943-10.8869486C449.871419 37.0253676 456.678441 35.7 464.150334 35.7zm-.759854 20.2591912c-4.305836 0-7.88348.7257965-10.732931 2.1773897-2.849451 1.4515931-5.129011 3.2503064-6.838682 5.3961397-1.70967 2.1458333-2.912772 4.4178921-3.609304 6.8161765-.696533 2.3982843-1.10812 4.5441176-1.234762 6.4375h43.881542c-1.266423-6.8161765-3.514323-11.9914216-6.7437-15.5257353-3.229378-3.5343138-8.136765-5.3014706-14.722163-5.3014706zM713.164927 138.7c5.572721 0 11.050452-.536458 16.433194-1.609375s10.163883-2.934743 14.343424-5.585478 7.567502-6.153493 10.163883-10.508272S758 111.245956 758 104.808456c0-4.5441178-.886569-8.3624388-2.659708-11.4549634-1.773138-3.0925245-4.116214-5.680147-7.029227-7.7628676-2.913014-2.0827206-6.237648-3.7552083-9.973904-5.0174632-3.736256-1.2622549-7.567502-2.3351716-11.493737-3.21875-3.799583-.8835785-7.535839-1.7040442-11.208768-2.4613971-3.67293-.7573529-6.934238-1.609375-9.783925-2.5560662-2.849687-.9466911-5.1611-2.1773897-6.934238-3.6920956-1.773139-1.5147058-2.659708-3.4712009-2.659708-5.8694853 0-2.0196078.506611-3.6289828 1.519833-4.828125 1.013222-1.1991421 2.248086-2.1142769 3.704593-2.7454044 1.456506-.6311274 3.071329-1.0413603 4.844467-1.2306985 1.773139-.1893382 3.419625-.2840073 4.939458-.2840073 4.812804 0 8.992345.9151348 12.538622 2.7454044 3.546277 1.8302696 5.414405 4.5170546 5.794363 9.6922997 5.130778.7797233 9.91192 1.9047778 14.343424 3.3751635 2.748327.9119027 6.461145 2.9855578 11.138454 6.2209652-.089018-1.0646226.260293-7.5209652 0-10.473648-.470693-5.339398-2.254036-10.0814537-4.394195-13.3588981-2.596382-3.9761029-5.85769-7.1632966-9.783925-9.5615809-3.926235-2.3982843-8.390745-4.1023284-13.393528-5.1121323C722.505567 36.204902 717.344468 35.7 712.025052 35.7c-5.319415 0-10.512178.4733456-15.578288 1.4200368-5.06611.9466911-9.625609 2.5876225-13.678497 4.9227941-4.052888 2.3351716-7.314196 5.5223652-9.783925 9.5615809-2.469728 4.0392157-3.704593 9.2144607-3.704593 15.5257353 0 4.2916666.88657 7.9206495 2.659708 10.8869485 1.773139 2.966299 4.116215 5.4276961 7.029228 7.3841912 2.913013 1.9564951 6.237648 3.5343137 9.973904 4.7334558 3.736256 1.1991422 7.567501 2.2405025 11.493737 3.1240809 9.625609 2.0196079 17.129784 4.0392157 22.512526 6.0588236 5.382742 2.0196079 8.074113 5.0490199 8.074113 9.0882349 0 2.398285-.569938 4.386336-1.709813 5.964155-1.139874 1.577818-2.564718 2.840073-4.27453 3.786764-1.709812.946692-3.609603 1.640932-5.699374 2.082721-2.08977.441789-4.084551.662684-5.984342.662684-2.659708 0-5.224426-.315564-7.694154-.946691-2.469729-.631128-4.654489-1.609375-6.55428-2.934743-1.899791-1.325368-3.451288-3.029412-4.654489-5.112132-1.203201-2.082721-1.804801-4.575674-1.804801-7.478861H667c.253305 6.563726 1.741475 12.022978 4.464509 16.377758 2.723034 4.354779 6.205985 7.857537 10.448852 10.508272s9.087335 4.544117 14.533403 5.680147c5.446068 1.136029 11.018789 1.704044 16.718163 1.704044zm79.657231-3v-33.655462l10.388864-10.0210086L828.511189 135.7H861l-36.833245-61.8277311L861 37.9478992h-31.733257l-36.444585 35.1680672V.7H766v135zM888 135.7v-98h-27v98z"/><path fill="var(--text)" d="M543.082294 135.7L512 37.7h28.428928L558.642 104.896 575.112219 37.7h26.154614L618.136 104.905 636.329177 37.7H664l-30.892768 98h-27.670823L587.8 69.076 570.942643 135.7h-27.860349z"/><path fill="url(#a)" d="M636.329177 37l-26.528186 98h23.306241L664 37z" transform="translate(0 .7)"/><path fill="url(#b)" d="M601.266833 37l24.601053 98h-20.431477l-25.942315-98z" transform="translate(0 .7)"/><path fill="url(#c)" d="M575.112219 37l-24.019692 98h19.850116l24.796972-98z" transform="translate(0 .7)"/><path fill="url(#d)" d="M514 37l31.082294 98h23.910458l-26.563824-98z" transform="translate(0 .7)"/><path fill="url(#e)" d="M370.968421 57.2823985L320 114.717602h35.431579L406.4 57.2823985z" transform="translate(0 .7)"/><path fill="var(--text)" fill-opacity=".5" fill-rule="nonzero" d="M680.102041 175.489796v-4H625v4h55.102041zM727.854255 199c3.542549 0 6.476222-.475146 8.80102-1.425439 2.324798-.950292 4.225228-2.101608 5.70129-3.453947 1.476062-1.352339 2.60156-2.814327 3.376492-4.385965.774933-1.571637 1.346907-3.015351 1.715923-4.33114l-1.549866-.548246c-.147606.657895-.535072 1.699562-1.162399 3.125-.627326 1.425439-1.568316 2.850877-2.822968 4.276316-1.254653 1.425439-2.915223 2.668129-4.98171 3.72807-2.066487 1.059942-4.612694 1.589912-7.638622 1.589912-3.173533 0-5.682839-.730994-7.527916-2.192982-1.845078-1.461988-3.247337-3.362573-4.206777-5.701754-.959441-2.339182-1.549866-4.934211-1.771275-7.785088-.221409-2.850877-.332114-5.701755-.332114-8.552632 0-3.070175.129156-5.975877.387466-8.717105.258311-2.741228.811835-5.153509 1.66057-7.236842.848736-2.083333 2.048036-3.746345 3.597902-4.989035 1.549865-1.24269 3.653253-1.864035 6.310165-1.864035 1.918881 0 3.524099.420321 4.815653 1.260965 1.291554.840643 1.937331 1.991959 1.937331 3.453947 0 .292398-.092253.804094-.276761 1.535088-.184508.730994-.369016 1.498538-.553523 2.302631-.184508.804094-.369016 1.571638-.553524 2.302632-.184508.730994-.276761 1.24269-.276761 1.535088 0 1.973684.71958 3.271198 2.15874 3.892543 1.439161.621345 3.007477.932018 4.704948.932018 2.287897 0 4.059171-.493421 5.313824-1.480263 1.254653-.986842 1.881979-2.686404 1.881979-5.098684 0-1.827486-.461269-3.490497-1.383808-4.989035-.922539-1.498538-2.214093-2.777778-3.874663-3.83772-1.66057-1.059941-3.634803-1.88231-5.922699-2.467105-2.287897-.584795-4.834104-.877193-7.638622-.877193-4.428186 0-8.3213.804094-11.679341 2.412281-3.358042 1.608187-6.199461 3.636696-8.524259 6.085526-2.324798 2.44883-4.077622 5.135234-5.258471 8.059211-1.18085 2.923976-1.771275 5.738304-1.771275 8.442982 0 3.72807.535073 6.944444 1.605218 9.649123 1.070145 2.704678 2.472404 4.989035 4.206777 6.85307 1.734373 1.864035 3.634803 3.344298 5.70129 4.440789 2.066487 1.096492 4.114523 1.95541 6.144108 2.576755 2.029586.621345 3.911565 1.023392 5.645938 1.20614 1.734373.182749 3.08128.274123 4.04072.274123zm45.104929 0c3.769376 0 7.266923-.657895 10.492639-1.973684 3.225717-1.31579 6.034627-3.106725 8.426732-5.372807 2.392104-2.266082 4.25867-4.915936 5.599699-7.949562 1.341028-3.033625 2.011542-6.268274 2.011542-9.703947 0-3.362573-.670514-6.560673-2.011542-9.594298-1.341029-3.033626-3.207595-5.68348-5.599699-7.949562-2.392105-2.266082-5.201015-4.075292-8.426732-5.427631C780.226107 149.67617 776.72856 149 772.959184 149c-3.769377 0-7.266923.67617-10.49264 2.028509-3.225717 1.352339-6.034627 3.161549-8.426731 5.427631-2.392105 2.266082-4.258671 4.915936-5.599699 7.949562-1.341028 3.033625-2.011543 6.231725-2.011543 9.594298 0 3.435673.670515 6.670322 2.011543 9.703947 1.341028 3.033626 3.207594 5.68348 5.599699 7.949562 2.392104 2.266082 5.201014 4.057017 8.426731 5.372807C765.692261 198.342105 769.189807 199 772.959184 199zm.510204-1.020408c-2.799102 0-4.988142-.674722-6.567123-2.024166-1.57898-1.349445-2.745272-3.118311-3.498876-5.306599-.753604-2.188288-1.220121-4.704819-1.399551-7.549593-.179429-2.844774-.269144-5.72602-.269144-8.643737 0-2.917717.089715-5.780727.269144-8.58903.17943-2.808303.645947-5.306598 1.399551-7.494886.753604-2.188288 1.919896-3.957154 3.498876-5.306598 1.578981-1.349445 3.768021-2.024167 6.567123-2.024167 2.799101 0 4.988142.674722 6.567122 2.024167 1.57898 1.349444 2.745272 3.11831 3.498877 5.306598.753604 2.188288 1.220121 4.686583 1.39955 7.494886.17943 2.808303.269145 5.671313.269145 8.58903 0 2.917717-.089715 5.798963-.269145 8.643737-.179429 2.844774-.645946 5.361305-1.39955 7.549593-.753605 2.188288-1.919897 3.957154-3.498877 5.306599-1.57898 1.349444-3.768021 2.024166-6.567122 2.024166zm55.109507 0v-1.532942h-6.460926v-26.716988c0-1.824931.054754-3.376122.164261-4.653574.109507-1.277452.292019-2.408909.547536-3.394371.255517-.985463.60229-1.86143 1.040319-2.627901.438028-.766471.949062-1.514693 1.533101-2.244665 2.190144-2.554903 4.745312-3.832355 7.665505-3.832355 1.679111 0 3.212212.638726 4.599303 1.916178 1.387091 1.277451 2.080637 3.522116 2.080637 6.733995v34.819681h-6.570433v1.532942h26.39124v-1.532942h-6.460926v-32.301277c0-1.970925.383275-3.668111 1.149825-5.091557.766551-1.423446 1.697362-2.573153 2.792435-3.449119 1.095072-.875967 2.226646-1.532942 3.394723-1.970926 1.168077-.437983 2.153642-.656975 2.956695-.656975 2.628173 0 4.508047.821219 5.639622 2.463657 1.131574 1.642438 1.697362 3.996599 1.697362 7.062482v33.943715h-6.460926v1.532942h27.048283v-1.532942h-7.227477v-29.892368c0-1.31395-.091256-2.919889-.273768-4.817818-.182512-1.897928-.784802-3.704609-1.806869-5.420044-1.022067-1.715435-2.664676-3.193629-4.927825-4.434582-2.263149-1.240953-5.475361-1.86143-9.636635-1.86143-.803053 0-1.82512.091247-3.066202.27374s-2.555168.583978-3.94226 1.204454c-1.387091.620477-2.755931 1.496444-4.10652 2.627901-1.350589 1.131457-2.57342 2.682648-3.668492 4.653573-.584039-1.021961-1.222831-2.043922-1.916376-3.065883-.693546-1.021962-1.606106-1.952677-2.737681-2.792145-1.131574-.839468-2.555168-1.532942-4.270781-2.080421-1.715613-.547479-3.851004-.821219-6.406173-.821219-2.409158 0-4.471544.328488-6.187157.985463-1.715613.656975-3.17571 1.441695-4.380289 2.354161-1.20458.912465-2.171893 1.861429-2.901941 2.846892s-1.314087 1.84318-1.752116 2.573152h-.219014v-7.774205h-20.368343v1.532942h7.227477v43.907837h-7.227477v1.532942h27.048283z"/></g></svg>